<?xml version="1.0" standalone="no"?>
<!DOCTYPE svg PUBLIC "-//W3C//DTD SVG 20010904//EN"
 "http://www.w3.org/TR/2001/REC-SVG-20010904/DTD/svg10.dtd">
<svg version="1.0" xmlns="http://www.w3.org/2000/svg"
 width="1012.000000pt" height="1012.000000pt" viewBox="0 0 1012.000000 1012.000000"
 preserveAspectRatio="xMidYMid meet">
<metadata>
Created by potrace 1.11, written by Peter Selinger 2001-2013
</metadata>
<g transform="translate(0.000000,1012.000000) scale(0.100000,-0.100000)"
fill="#000000" stroke="none">
<path d="M10 5060 l0 -5060 5055 0 5055 0 0 5060 0 5060 -5055 0 -5055 0 0
-5060z m1440 1010 l0 -790 1650 0 1650 0 0 790 0 790 225 0 225 0 0 -1805 0
-1805 -225 0 -225 0 0 825 0 825 -1650 0 -1650 0 0 -825 0 -825 -225 0 -225 0
0 1805 0 1805 225 0 225 0 0 -790z m7790 600 l0 -190 -1500 0 -1500 0 0 -600
0 -600 1425 0 1425 0 0 -190 0 -190 -1425 0 -1425 0 0 -825 0 -825 -227 2
-228 3 -3 1790 c-1 985 0 1796 3 1803 3 9 359 12 1730 12 l1725 0 0 -190z"/>
</g>
</svg>
