<?xml version="1.0" standalone="no"?>
<!DOCTYPE svg PUBLIC "-//W3C//DTD SVG 20010904//EN"
 "http://www.w3.org/TR/2001/REC-SVG-20010904/DTD/svg10.dtd">
<svg version="1.0" xmlns="http://www.w3.org/2000/svg"
 width="800.000000pt" height="800.000000pt" viewBox="0 0 800.000000 800.000000"
 preserveAspectRatio="xMidYMid meet">
<metadata>
Created by potrace 1.11, written by Peter Selinger 2001-2013
</metadata>
<g transform="translate(0.000000,800.000000) scale(0.100000,-0.100000)"
fill="#000000" stroke="none">
<path d="M1405 6494 c-260 -37 -448 -125 -611 -288 -480 -481 -348 -1294 261
-1598 145 -73 274 -102 445 -102 129 0 197 10 310 46 178 57 358 181 466 322
l30 38 682 -452 c375 -249 682 -455 682 -459 -1 -7 -1349 -906 -1361 -906 -4
0 -34 31 -66 69 -195 232 -537 364 -849 327 -234 -27 -439 -125 -600 -285
-212 -213 -319 -518 -285 -812 51 -445 361 -781 806 -875 77 -17 293 -17 370
0 328 69 580 265 716 555 61 130 81 220 86 389 l6 149 817 545 818 545 1279
-851 1280 -851 403 2 402 3 -993 672 c-547 370 -1671 1131 -2499 1691 l-1505
1018 -6 150 c-5 105 -13 172 -29 229 -98 361 -386 632 -754 711 -71 15 -248
26 -301 18z m220 -509 c87 -23 152 -62 225 -135 103 -102 150 -213 150 -350 0
-137 -47 -248 -150 -350 -73 -73 -138 -112 -225 -135 -116 -30 -253 -14 -359
43 -65 34 -174 143 -208 208 -77 143 -77 325 0 468 34 66 143 174 208 208 105
57 243 73 359 43z m0 -3000 c32 -9 81 -28 109 -43 65 -34 174 -143 208 -208
77 -143 77 -325 0 -468 -34 -65 -143 -174 -208 -208 -143 -77 -325 -77 -468 0
-65 34 -174 143 -208 208 -77 143 -77 325 0 468 34 66 143 174 208 208 105 57
243 73 359 43z"/>
<path d="M5633 5302 c-579 -383 -1053 -699 -1053 -702 0 -8 442 -295 451 -293
9 3 2439 1670 2453 1684 6 5 -155 9 -395 9 l-404 -1 -1052 -697z"/>
</g>
</svg>
